<svg width="84" height="97" viewBox="0 0 84 97" fill="none" xmlns="http://www.w3.org/2000/svg">
<path d="M16.1866 80.7235C14.9466 80.0735 14.6362 79.1581 15.2552 77.9771L21.1982 66.6404C21.8791 65.3414 22.8396 65.0169 24.0795 65.6669L36.7448 72.3063C37.9847 72.9563 38.2642 73.9308 37.5833 75.2298L31.6404 86.5665C31.0213 87.7474 30.0918 88.0129 28.8518 87.3629L16.1866 80.7235ZM26.1896 23.3038C28.1706 19.5248 30.5394 16.5138 33.296 14.2706C36.1117 12.0583 39.0481 10.5491 42.1052 9.74299C45.1932 8.87783 48.3134 8.66933 51.4657 9.11747C54.6489 9.50657 57.6281 10.4285 60.4032 11.8833C63.7688 13.6476 66.5916 15.7295 68.8715 18.129C71.1514 20.5285 72.8463 23.1106 73.9562 25.8754C75.1252 28.671 75.636 31.5733 75.4888 34.5823C75.3416 37.5913 74.4942 40.5719 72.9466 43.5242C71.6156 46.0631 70.102 48.0171 68.4059 49.3861C66.7687 50.786 65.0333 51.8709 63.1995 52.6409C61.4557 53.3827 59.6558 53.9446 57.7996 54.3264C55.9744 54.6493 54.2378 55.0185 52.5897 55.4342C51.0007 55.8808 49.5129 56.4934 48.1262 57.2719C46.7986 58.0814 45.717 59.2832 44.8812 60.8775L42.1883 66.0144C41.4512 67.1334 40.5217 67.3989 39.3998 66.8108L27.1774 60.4035C25.9375 59.7535 25.627 58.8381 26.2461 57.6572L29.914 50.6603C30.9354 48.7118 32.1423 47.1992 33.5347 46.1226C35.017 45.0179 36.5696 44.1382 38.1925 43.4835C39.8153 42.8288 41.4507 42.2936 43.0988 41.8779C44.8369 41.4341 46.4709 40.9735 48.0008 40.4959C49.5618 39.9593 50.9765 39.2707 52.2451 38.4303C53.5727 37.6208 54.6389 36.4485 55.4436 34.9133C56.3722 33.142 56.5063 31.5939 55.8459 30.2692C55.2754 28.9163 54.2226 27.8375 52.6874 27.0328C51.1522 26.228 49.4242 26.1501 47.5033 26.7991C45.6414 27.479 43.9986 29.1771 42.5747 31.8931C41.9247 33.1331 40.9797 33.4281 39.7398 32.7781L27.0745 26.1387C25.8346 25.4887 25.5396 24.5437 26.1896 23.3038Z" fill="#0ECA80"/>
</svg>
