<svg width="32" height="32" viewBox="0 0 32 32" fill="none" xmlns="http://www.w3.org/2000/svg">
<g clip-path="url(#clip0_4002_203)">
<path d="M25.2267 8.01366C24.96 7.22699 24.2133 6.66699 23.3333 6.66699H8.66667C7.78667 6.66699 7.05333 7.22699 6.77333 8.01366L4.14667 15.5737C4.05333 15.8537 4 16.147 4 16.4537V26.0003C4 27.107 4.89333 28.0003 6 28.0003C7.10667 28.0003 8 27.107 8 26.0003V25.3337H24V26.0003C24 27.0937 24.8933 28.0003 26 28.0003C27.0933 28.0003 28 27.107 28 26.0003V16.4537C28 16.1603 27.9467 15.8537 27.8533 15.5737L25.2267 8.01366ZM8.66667 21.3337C7.56 21.3337 6.66667 20.4403 6.66667 19.3337C6.66667 18.227 7.56 17.3337 8.66667 17.3337C9.77333 17.3337 10.6667 18.227 10.6667 19.3337C10.6667 20.4403 9.77333 21.3337 8.66667 21.3337ZM23.3333 21.3337C22.2267 21.3337 21.3333 20.4403 21.3333 19.3337C21.3333 18.227 22.2267 17.3337 23.3333 17.3337C24.44 17.3337 25.3333 18.227 25.3333 19.3337C25.3333 20.4403 24.44 21.3337 23.3333 21.3337ZM6.66667 14.667L8.36 9.57366C8.54667 9.04033 9.05333 8.66699 9.62667 8.66699H22.3733C22.9467 8.66699 23.4533 9.04033 23.64 9.57366L25.3333 14.667H6.66667Z" fill="#191919"/>
</g>
<defs>
<clipPath id="clip0_4002_203">
<rect width="32" height="32" fill="white"/>
</clipPath>
</defs>
</svg>
