<svg width="32" height="32" viewBox="0 0 32 32" fill="none" xmlns="http://www.w3.org/2000/svg">
<g clip-path="url(#clip0_4002_228)">
<mask id="path-1-inside-1_4002_228" fill="white">
<rect x="12.0479" y="6" width="6.97171" height="9.7604" rx="1"/>
</mask>
<rect x="12.0479" y="6" width="6.97171" height="9.7604" rx="1" stroke="#191919" stroke-width="4" mask="url(#path-1-inside-1_4002_228)"/>
<rect x="11.5001" y="5.5" width="8" height="1" rx="0.5" stroke="#191919"/>
<path fill-rule="evenodd" clip-rule="evenodd" d="M12.0621 14.3662L4.36703 23.638C3.2853 24.9414 4.21224 26.9153 5.90604 26.9153H25.1614C26.8552 26.9153 27.7822 24.9414 26.7005 23.638L19.0054 14.3662H12.0621ZM14.8366 21.3379C14.8366 22.108 14.2123 22.7323 13.4422 22.7323C12.6722 22.7323 12.0479 22.108 12.0479 21.3379C12.0479 20.5679 12.6722 19.9436 13.4422 19.9436C14.2123 19.9436 14.8366 20.5679 14.8366 21.3379ZM16.9281 19.9436C17.3131 19.9436 17.6253 19.6314 17.6253 19.2464C17.6253 18.8614 17.3131 18.5492 16.9281 18.5492C16.543 18.5492 16.2309 18.8614 16.2309 19.2464C16.2309 19.6314 16.543 19.9436 16.9281 19.9436Z" fill="#191919"/>
</g>
<defs>
<clipPath id="clip0_4002_228">
<rect width="32" height="32" fill="white"/>
</clipPath>
</defs>
</svg>
