<svg width="32" height="32" viewBox="0 0 32 32" fill="none" xmlns="http://www.w3.org/2000/svg">
<g clip-path="url(#clip0_4002_192)">
<path d="M16.4951 6.13678C14.2302 3.87186 10.8385 3.40986 8.11154 4.73952L12.2019 8.82989C12.6414 9.26935 12.6414 9.97925 12.2019 10.4187L10.4103 12.2104C9.9708 12.6611 9.2609 12.6611 8.82144 12.2104L4.73106 8.11999C3.41268 10.8582 3.87468 14.2274 6.1396 16.4923C8.23549 18.5882 11.3005 19.1403 13.9034 18.16L22.8729 27.1295C24.0336 28.2902 25.9041 28.2902 27.0535 27.1295C28.2141 25.9689 28.2141 24.0984 27.0535 22.949L18.129 14.0133C19.1657 11.3765 18.6248 8.26648 16.4951 6.13678Z" fill="#191919"/>
</g>
<defs>
<clipPath id="clip0_4002_192">
<rect width="32" height="32" fill="white"/>
</clipPath>
</defs>
</svg>
