<svg width="32" height="32" viewBox="0 0 32 32" fill="none" xmlns="http://www.w3.org/2000/svg">
<g clip-path="url(#clip0_4002_189)">
<path d="M16.0668 14.5333C13.0401 13.7467 12.0668 12.9333 12.0668 11.6667C12.0668 10.2133 13.4135 9.2 15.6668 9.2C17.5601 9.2 18.5068 9.92 18.8535 11.0667C19.0135 11.6 19.4535 12 20.0135 12H20.4135C21.2935 12 21.9201 11.1333 21.6135 10.3067C21.0535 8.73333 19.7468 7.42667 17.6668 6.92V6C17.6668 4.89333 16.7735 4 15.6668 4C14.5601 4 13.6668 4.89333 13.6668 6V6.88C11.0801 7.44 9.00012 9.12 9.00012 11.6933C9.00012 14.7733 11.5468 16.3067 15.2668 17.2C18.6001 18 19.2668 19.1733 19.2668 20.4133C19.2668 21.3333 18.6135 22.8 15.6668 22.8C13.4668 22.8 12.3335 22.0133 11.8935 20.8933C11.6935 20.3733 11.2401 20 10.6935 20H10.3201C9.42679 20 8.80012 20.9067 9.13346 21.7333C9.89346 23.5867 11.6668 24.68 13.6668 25.1067V26C13.6668 27.1067 14.5601 28 15.6668 28C16.7735 28 17.6668 27.1067 17.6668 26V25.1333C20.2668 24.64 22.3335 23.1333 22.3335 20.4C22.3335 16.6133 19.0935 15.32 16.0668 14.5333Z" fill="#191919"/>
</g>
<defs>
<clipPath id="clip0_4002_189">
<rect width="32" height="32" fill="white"/>
</clipPath>
</defs>
</svg>
