<svg width="32" height="32" viewBox="0 0 32 32" fill="none" xmlns="http://www.w3.org/2000/svg">
<g clip-path="url(#clip0_4002_269)">
<path d="M28 18.6663C28 17.933 27.4 17.333 26.6667 17.333H24V19.9997H26.6667C27.4 19.9997 28 19.3997 28 18.6663Z" fill="#191919"/>
<path d="M26.6667 22.666H24V25.3327H26.6667C27.4 25.3327 28 24.7327 28 23.9993C28 23.266 27.4 22.666 26.6667 22.666Z" fill="#191919"/>
<path d="M21.3334 16H18.6667C17.2 16 16 17.2 16 18.6667H14.6667C13.9334 18.6667 13.3334 19.2667 13.3334 20V22.6667C13.3334 23.4 13.9334 24 14.6667 24H16C16 25.4667 17.2 26.6667 18.6667 26.6667H21.3334C22.0667 26.6667 22.6667 26.0667 22.6667 25.3333V17.3333C22.6667 16.6 22.0667 16 21.3334 16Z" fill="#191919"/>
<path d="M6.66667 17.333C6.66667 15.8663 7.86667 14.6663 9.33333 14.6663H11.3333C13.9067 14.6663 16 12.573 16 9.99967C16 7.42634 13.9067 5.33301 11.3333 5.33301H6.66667C5.93333 5.33301 5.33333 5.93301 5.33333 6.66634C5.33333 7.39967 5.93333 7.99967 6.66667 7.99967H11.3333C12.44 7.99967 13.3333 8.89301 13.3333 9.99967C13.3333 11.1063 12.44 11.9997 11.3333 11.9997H9.33333C6.38667 11.9997 4 14.3863 4 17.333C4 20.2797 6.38667 22.6663 9.33333 22.6663H12V19.9997H9.33333C7.86667 19.9997 6.66667 18.7997 6.66667 17.333Z" fill="#191919"/>
</g>
<defs>
<clipPath id="clip0_4002_269">
<rect width="32" height="32" fill="white"/>
</clipPath>
</defs>
</svg>
