<svg width="32" height="32" viewBox="0 0 32 32" fill="none" xmlns="http://www.w3.org/2000/svg">
<g clip-path="url(#clip0_4002_240)">
<path d="M25.249 23.6892H5.607C4.97152 23.6892 4.45159 24.2091 4.45159 24.8446C4.45159 25.4801 4.97152 26 5.607 26H25.249C25.8845 26 26.4044 25.4801 26.4044 24.8446C26.4044 24.2091 25.8845 23.6892 25.249 23.6892ZM27.063 12.8745C26.8088 11.9502 25.8614 11.4071 24.937 11.6498L18.8018 13.2905L11.3378 6.33489C11.0259 6.03448 10.5753 5.9305 10.1593 6.04604C9.37364 6.26557 9.00391 7.16679 9.4083 7.87159L13.3829 14.7578L7.64053 16.2945L5.82653 14.8618C5.53768 14.6423 5.16794 14.5614 4.80977 14.6539L4.42848 14.7578C4.05875 14.8503 3.88544 15.2778 4.08186 15.6013L6.25403 19.3564C6.51978 19.807 7.05126 20.0265 7.54809 19.8994L25.8267 15.0005C26.751 14.7463 27.3056 13.7989 27.063 12.8745Z" fill="#191919"/>
</g>
<defs>
<clipPath id="clip0_4002_240">
<rect width="32" height="32" fill="white"/>
</clipPath>
</defs>
</svg>
