<svg width="32" height="32" viewBox="0 0 32 32" fill="none" xmlns="http://www.w3.org/2000/svg">
<g clip-path="url(#clip0_4002_212)">
<path d="M14.4 5.19992L6.40004 11.1999C5.73337 11.7066 5.33337 12.4933 5.33337 13.3333V25.3333C5.33337 26.7999 6.53337 27.9999 8.00004 27.9999H24C25.4667 27.9999 26.6667 26.7999 26.6667 25.3333V13.3333C26.6667 12.4933 26.2667 11.7066 25.6 11.1999L17.6 5.19992C16.6534 4.49326 15.3467 4.49326 14.4 5.19992ZM16.6667 16.6666C16.6667 17.7733 15.7734 18.6666 14.6667 18.6666V23.3333C14.6667 23.7066 14.3734 23.9999 14 23.9999C13.6267 23.9999 13.3334 23.7066 13.3334 23.3333V18.6666C12.2267 18.6666 11.3334 17.7733 11.3334 16.6666V13.3333C11.3334 12.9599 11.6267 12.6666 12 12.6666C12.3734 12.6666 12.6667 12.9599 12.6667 13.3333V16.6666H13.3334V13.3333C13.3334 12.9599 13.6267 12.6666 14 12.6666C14.3734 12.6666 14.6667 12.9599 14.6667 13.3333V16.6666H15.3334V13.3333C15.3334 12.9599 15.6267 12.6666 16 12.6666C16.3734 12.6666 16.6667 12.9599 16.6667 13.3333V16.6666ZM19.3334 23.9999C18.96 23.9999 18.6667 23.7066 18.6667 23.3333V19.3333H18C17.6267 19.3333 17.3334 19.0399 17.3334 18.6666V15.3333C17.3334 14.1599 18.0934 13.1599 19.1467 12.8133C19.56 12.6666 20 12.9999 20 13.4533V23.3333C20 23.7066 19.7067 23.9999 19.3334 23.9999Z" fill="#191919"/>
</g>
<defs>
<clipPath id="clip0_4002_212">
<rect width="32" height="32" fill="white"/>
</clipPath>
</defs>
</svg>
