<svg width="32" height="32" viewBox="0 0 32 32" fill="none" xmlns="http://www.w3.org/2000/svg">
<path d="M28 8H4.00004C2.53337 8 1.33337 9.2 1.33337 10.6667V21.3333C1.33337 22.8 2.53337 24 4.00004 24H28C29.4667 24 30.6667 22.8 30.6667 21.3333V10.6667C30.6667 9.2 29.4667 8 28 8ZM13.3334 17.3333H10.6667V20C10.6667 20.7333 10.0667 21.3333 9.33337 21.3333C8.60004 21.3333 8.00004 20.7333 8.00004 20V17.3333H5.33337C4.60004 17.3333 4.00004 16.7333 4.00004 16C4.00004 15.2667 4.60004 14.6667 5.33337 14.6667H8.00004V12C8.00004 11.2667 8.60004 10.6667 9.33337 10.6667C10.0667 10.6667 10.6667 11.2667 10.6667 12V14.6667H13.3334C14.0667 14.6667 14.6667 15.2667 14.6667 16C14.6667 16.7333 14.0667 17.3333 13.3334 17.3333ZM20.6667 20C19.56 20 18.6667 19.1067 18.6667 18C18.6667 16.8933 19.56 16 20.6667 16C21.7734 16 22.6667 16.8933 22.6667 18C22.6667 19.1067 21.7734 20 20.6667 20ZM26 16C24.8934 16 24 15.1067 24 14C24 12.8933 24.8934 12 26 12C27.1067 12 28 12.8933 28 14C28 15.1067 27.1067 16 26 16Z" fill="#191919"/>
</svg>
