<svg width="32" height="32" viewBox="0 0 32 32" fill="none" xmlns="http://www.w3.org/2000/svg">
<g clip-path="url(#clip0_4002_206)">
<path d="M25.6 8.8H20.8V6.4C20.8 5.08 19.72 4 18.4 4H13.6C12.28 4 11.2 5.08 11.2 6.4V8.8H6.4C5.08 8.8 4 9.88 4 11.2V25.6C4 26.92 5.08 28 6.4 28H25.6C26.92 28 28 26.92 28 25.6V11.2C28 9.88 26.92 8.8 25.6 8.8ZM13.6 6.4H18.4V8.8H13.6V6.4ZM20.8 19.6H17.2V23.2H14.8V19.6H11.2V17.2H14.8V13.6H17.2V17.2H20.8V19.6Z" fill="#191919"/>
</g>
<defs>
<clipPath id="clip0_4002_206">
<rect width="32" height="32" fill="white"/>
</clipPath>
</defs>
</svg>
