<svg width="32" height="32" viewBox="0 0 32 32" fill="none" xmlns="http://www.w3.org/2000/svg">
<g clip-path="url(#clip0_4002_298)">
<rect x="8" y="5" width="16" height="22" rx="1" fill="#191919"/>
<path d="M7 5H25V5C25 5.55228 24.5523 6 24 6H8C7.44772 6 7 5.55228 7 5V5Z" fill="#191919"/>
<path d="M7 27C7 26.4477 7.44772 26 8 26H24C24.5523 26 25 26.4477 25 27V27H7V27Z" fill="#191919"/>
<path d="M7 16.5C7 16.2239 7.22386 16 7.5 16H24.5C24.7761 16 25 16.2239 25 16.5V16.5C25 16.7761 24.7761 17 24.5 17H7.5C7.22386 17 7 16.7761 7 16.5V16.5Z" fill="#191919"/>
<path d="M19 17.7273C19 19.5348 17.6569 21 16 21C14.3431 21 13 19.5348 13 17.7273C13 15.9198 15.6741 12 16 12C16.2944 12 19 15.9198 19 17.7273Z" fill="white"/>
</g>
<defs>
<clipPath id="clip0_4002_298">
<rect width="32" height="32" fill="white"/>
</clipPath>
</defs>
</svg>
