<svg width="32" height="32" viewBox="0 0 32 32" fill="none" xmlns="http://www.w3.org/2000/svg">
<g clip-path="url(#clip0_4002_306)">
<path d="M28 16.0645C28 17.5176 27.7658 18.9565 27.2097 20.299C26.6536 21.6415 25.0756 23.7311 24.0481 24.7586C23.0206 25.7861 21.7214 25.7314 20.3789 26.2874C19.0364 26.8435 17.5975 27.1297 16.1444 27.1297C14.6913 27.1297 13.2524 26.8435 11.9099 26.2874C10.5674 25.7314 8.47774 24.9957 7.45023 23.9682C6.42273 22.9407 5.63503 21.6415 5.07895 20.299C4.52286 18.9565 3.49808 16.8548 4.28862 16.0645L16.1444 16.0645H28Z" fill="#191919"/>
<path fill-rule="evenodd" clip-rule="evenodd" d="M12.4022 8.16113H12.9828C12.9829 9.90709 14.3983 11.3224 16.1443 11.3224C17.8903 11.3224 19.3057 9.90709 19.3058 8.16113H19.8868C20.439 8.16113 20.8868 8.60885 20.8868 9.16113V11.4225C20.6341 11.3575 20.3692 11.3229 20.0962 11.3229C18.3501 11.3229 16.9346 12.7383 16.9346 14.4844C16.9346 15.0601 17.0886 15.5999 17.3575 16.0649H14.9311C15.2 15.5999 15.354 15.0601 15.354 14.4844C15.354 12.7383 13.9385 11.3229 12.1924 11.3229C11.9196 11.3229 11.6548 11.3574 11.4022 11.4224V9.16113C11.4022 8.60885 11.8499 8.16113 12.4022 8.16113Z" fill="#191919"/>
<path d="M25.3921 7.97754C23.2589 9.96257 24.3256 10.9551 22.1925 11.9476C20.2846 12.8353 16.8599 9.96257 17.9264 7.97754C18.9928 5.99251 21.9695 5 24.3256 5C26.6817 5 27.5253 5.99251 25.3921 7.97754Z" fill="#191919"/>
<path d="M6.89648 7.97754C9.02967 9.96257 7.96301 10.9551 10.0961 11.9476C12.0039 12.8353 15.4286 9.96257 14.3622 7.97754C13.2957 5.99251 10.3191 5 7.96301 5C5.6069 5 4.7633 5.99251 6.89648 7.97754Z" fill="#191919"/>
</g>
<defs>
<clipPath id="clip0_4002_306">
<rect width="32" height="32" fill="white"/>
</clipPath>
</defs>
</svg>
