<svg width="32" height="32" viewBox="0 0 32 32" fill="none" xmlns="http://www.w3.org/2000/svg">
<g clip-path="url(#clip0_4002_252)">
<path fill-rule="evenodd" clip-rule="evenodd" d="M22.2267 17.5059C24.0534 18.7459 25.3334 20.4259 25.3334 22.6659V26.6659H29.3334C30.0667 26.6659 30.6667 26.0659 30.6667 25.3325V22.6659C30.6667 19.7592 25.9067 18.0392 22.2267 17.5059Z" fill="#191919"/>
<path d="M12.0001 15.9997C14.9456 15.9997 17.3334 13.6119 17.3334 10.6663C17.3334 7.72082 14.9456 5.33301 12.0001 5.33301C9.05456 5.33301 6.66675 7.72082 6.66675 10.6663C6.66675 13.6119 9.05456 15.9997 12.0001 15.9997Z" fill="#191919"/>
<path fill-rule="evenodd" clip-rule="evenodd" d="M20 15.9997C22.9467 15.9997 25.3334 13.613 25.3334 10.6663C25.3334 7.71967 22.9467 5.33301 20 5.33301C19.3734 5.33301 18.7867 5.46634 18.2267 5.65301C19.3334 7.02634 20 8.77301 20 10.6663C20 12.5597 19.3334 14.3063 18.2267 15.6797C18.7867 15.8663 19.3734 15.9997 20 15.9997Z" fill="#191919"/>
<path fill-rule="evenodd" clip-rule="evenodd" d="M12 17.333C8.44004 17.333 1.33337 19.1197 1.33337 22.6663V25.333C1.33337 26.0663 1.93337 26.6663 2.66671 26.6663H21.3334C22.0667 26.6663 22.6667 26.0663 22.6667 25.333V22.6663C22.6667 19.1197 15.56 17.333 12 17.333Z" fill="#191919"/>
</g>
<defs>
<clipPath id="clip0_4002_252">
<rect width="32" height="32" fill="white"/>
</clipPath>
</defs>
</svg>
