<svg width="32" height="32" viewBox="0 0 32 32" fill="none" xmlns="http://www.w3.org/2000/svg">
<g clip-path="url(#clip0_4002_166)">
<path fill-rule="evenodd" clip-rule="evenodd" d="M8 5C6.34315 5 5 6.34315 5 8V24C5 25.6569 6.34315 27 8 27H24C25.6569 27 27 25.6569 27 24V8C27 6.34315 25.6569 5 24 5H8ZM13 11C11.8954 11 11 11.8954 11 13V19C11 20.1046 11.8954 21 13 21H19C20.1046 21 21 20.1046 21 19V13C21 11.8954 20.1046 11 19 11H13Z" fill="#191919"/>
<rect x="8" y="2" width="2" height="2" rx="0.5" fill="#191919"/>
<rect x="15" y="2" width="2" height="2" rx="0.5" fill="#191919"/>
<rect x="22" y="2" width="2" height="2" rx="0.5" fill="#191919"/>
<rect x="8" y="28" width="2" height="2" rx="0.5" fill="#191919"/>
<rect x="15" y="28" width="2" height="2" rx="0.5" fill="#191919"/>
<rect x="22" y="28" width="2" height="2" rx="0.5" fill="#191919"/>
<rect x="2" y="24" width="2" height="2" rx="0.5" transform="rotate(-90 2 24)" fill="#191919"/>
<rect x="2" y="17" width="2" height="2" rx="0.5" transform="rotate(-90 2 17)" fill="#191919"/>
<rect x="2" y="10" width="2" height="2" rx="0.5" transform="rotate(-90 2 10)" fill="#191919"/>
<rect x="28" y="24" width="2" height="2" rx="0.5" transform="rotate(-90 28 24)" fill="#191919"/>
<rect x="28" y="17" width="2" height="2" rx="0.5" transform="rotate(-90 28 17)" fill="#191919"/>
<rect x="28" y="10" width="2" height="2" rx="0.5" transform="rotate(-90 28 10)" fill="#191919"/>
</g>
<defs>
<clipPath id="clip0_4002_166">
<rect width="32" height="32" fill="white"/>
</clipPath>
</defs>
</svg>
