<svg width="32" height="32" viewBox="0 0 32 32" fill="none" xmlns="http://www.w3.org/2000/svg">
<g clip-path="url(#clip0_4002_215)">
<path d="M26.6667 24C28.1333 24 29.32 22.8 29.32 21.3333L29.3333 6.66667C29.3333 5.2 28.1333 4 26.6667 4H5.33333C3.86667 4 2.66667 5.2 2.66667 6.66667V21.3333C2.66667 22.8 3.86667 24 5.33333 24H0C0 25.4667 1.2 26.6667 2.66667 26.6667H29.3333C30.8 26.6667 32 25.4667 32 24H26.6667ZM5.33333 6.66667H26.6667V21.3333H5.33333V6.66667ZM16 25.3333C15.2667 25.3333 14.6667 24.7333 14.6667 24C14.6667 23.2667 15.2667 22.6667 16 22.6667C16.7333 22.6667 17.3333 23.2667 17.3333 24C17.3333 24.7333 16.7333 25.3333 16 25.3333Z" fill="#191919"/>
</g>
<defs>
<clipPath id="clip0_4002_215">
<rect width="32" height="32" fill="white"/>
</clipPath>
</defs>
</svg>
