<svg width="32" height="32" viewBox="0 0 32 32" fill="none" xmlns="http://www.w3.org/2000/svg">
<g clip-path="url(#clip0_4002_281)">
<path d="M27.9867 23.9871L21.4 17.4004L18.5734 20.2271L25.16 26.8137C25.9467 27.6004 27.2134 27.6004 27.9867 26.8137C28.76 26.0271 28.76 24.7604 27.9867 23.9871Z" fill="#191919"/>
<path d="M23.5334 13.3334C26.1067 13.3334 28.2001 11.2401 28.2001 8.66673C28.2001 7.8934 27.9867 7.1734 27.6534 6.5334L24.0534 10.1334L22.0667 8.14673L25.6667 4.54673C25.0267 4.2134 24.3067 4.00007 23.5334 4.00007C20.9601 4.00007 18.8667 6.0934 18.8667 8.66673C18.8667 9.2134 18.9734 9.7334 19.1467 10.2134L16.6801 12.6801L14.3067 10.3067C14.8267 9.78673 14.8267 8.94673 14.3067 8.42673L13.3601 7.48007L16.1867 4.6534C14.6267 3.0934 12.0934 3.0934 10.5334 4.6534L6.77339 8.42673C6.25339 8.94673 6.25339 9.78673 6.77339 10.3067L7.72005 11.2534H4.33339C4.08005 11.2534 3.84005 11.3467 3.66672 11.5334C3.29339 11.9067 3.29339 12.4934 3.66672 12.8667L7.05339 16.2534C7.42672 16.6267 8.01339 16.6267 8.38672 16.2534C8.56005 16.0801 8.66672 15.8401 8.66672 15.5867V12.2001L9.60005 13.1334C10.1201 13.6534 10.9601 13.6534 11.4801 13.1334L13.8534 15.5067L5.38672 23.9734C4.60005 24.7601 4.60005 26.0267 5.38672 26.8001C6.17339 27.5867 7.44005 27.5867 8.21339 26.8001L21.9734 13.0534C22.4667 13.2267 22.9867 13.3334 23.5334 13.3334Z" fill="#191919"/>
</g>
<defs>
<clipPath id="clip0_4002_281">
<rect width="32" height="32" fill="white"/>
</clipPath>
</defs>
</svg>
