<svg width="32" height="32" viewBox="0 0 32 32" fill="none" xmlns="http://www.w3.org/2000/svg">
<g clip-path="url(#clip0_4002_266)">
<path d="M28 16C28 9.376 22.624 4 16 4C9.376 4 4 9.376 4 16C4 22.624 9.376 28 16 28C22.624 28 28 22.624 28 16ZM19.6 9.4L23.38 13.18C23.62 13.42 23.62 13.792 23.38 14.032L19.6 17.8V14.8H14.8V12.4H19.6V9.4ZM12.4 22.6L8.62 18.82C8.38 18.58 8.38 18.208 8.62 17.968L12.4 14.2V17.2H17.2V19.6H12.4V22.6Z" fill="#191919"/>
</g>
<defs>
<clipPath id="clip0_4002_266">
<rect width="32" height="32" fill="white"/>
</clipPath>
</defs>
</svg>
