<svg width="1079" height="656" viewBox="0 0 1079 656" fill="none" xmlns="http://www.w3.org/2000/svg">
<path d="M835.251 159.151L835.546 159.457L835.971 159.457L1163.6 159.457C1274.83 159.457 1364.83 249.526 1364.83 360.851L1364.83 655L1165.01 655L1165.01 399.702C1165.01 377.589 1147.08 359.647 1124.98 359.647L818.917 359.647L712.103 248.891L684.258 220.007L683.538 219.26L682.818 220.007L654.974 248.891L548.16 359.647L242.093 359.647C219.996 359.647 202.07 377.589 202.07 399.702L202.07 655L1.84226 655L1.84227 360.851C1.84227 249.527 92.0415 159.457 203.07 159.457L530.699 159.457L531.124 159.457L531.419 159.151L683.335 1.44147L835.251 159.151Z" stroke="#00A968" stroke-opacity="0.5" stroke-width="2"/>
<circle cx="682.845" cy="328.591" r="36.8234" stroke="#9DDEC4" stroke-width="2"/>
</svg>
