<svg width="281" height="585" viewBox="0 0 281 585" fill="none" xmlns="http://www.w3.org/2000/svg">
<path d="M213.124 498.343L213.124 357.95L281 292.544L213.124 227.137L213.124 86.744C213.124 38.9303 174.351 0.0870268 126.428 0.0870226L-9.90044e-06 0.0870116L-1.74762e-05 86.744L109.786 86.744C119.022 86.744 126.515 94.234 126.515 103.466L126.515 234.801L174.089 280.699L186.462 292.631L174.089 304.562L126.515 350.46L126.515 481.795C126.515 491.027 119.022 498.517 109.786 498.517L-5.34746e-05 498.517L-6.10352e-05 585L126.428 585C174.351 585 213.124 546.244 213.124 498.343Z" fill="#00A968"/>
</svg>
