<svg width="473" height="860" viewBox="0 0 473 860" fill="none" xmlns="http://www.w3.org/2000/svg">
<g filter="url(#filter0_d_2046_400)">
<path d="M393.58 26H113.072C83.756 26 59.9902 49.271 59.9902 77.9773V753.659C59.9902 782.365 83.756 805.636 113.072 805.636H393.58C422.896 805.636 446.662 782.365 446.662 753.659V77.9773C446.662 49.271 422.896 26 393.58 26Z" fill="#E2E2E7"/>
<path d="M393.64 26.1814H113.013C83.8351 26.1814 60.1816 49.3425 60.1816 77.9131V753.717C60.1816 782.288 83.8351 805.449 113.013 805.449H393.64C422.818 805.449 446.471 782.288 446.471 753.717V77.9131C446.471 49.3425 422.818 26.1814 393.64 26.1814Z" fill="#E3E3E8"/>
<path d="M393.7 26.3679H112.96C83.9169 26.3679 60.373 49.4217 60.373 77.8599V753.781C60.373 782.219 83.9169 805.273 112.96 805.273H393.7C422.743 805.273 446.287 782.219 446.287 753.781V77.8599C446.287 49.4217 422.743 26.3679 393.7 26.3679Z" fill="#E3E3E8"/>
<path d="M393.754 26.5493H112.9C83.9928 26.5493 60.5586 49.4957 60.5586 77.8015V753.834C60.5586 782.14 83.9928 805.086 112.9 805.086H393.754C422.662 805.086 446.096 782.14 446.096 753.834V77.8015C446.096 49.4957 422.662 26.5493 393.754 26.5493Z" fill="#E4E4E9"/>
<path d="M112.841 26.7305H393.814C422.562 26.7305 445.905 49.5879 445.905 77.7371V753.892C445.905 782.041 422.562 804.899 393.814 804.899H112.841C84.0933 804.899 60.75 782.041 60.75 753.892V77.7429C60.75 49.5878 84.0933 26.7305 112.841 26.7305Z" fill="#E5E5E9"/>
<path d="M393.872 26.9185H112.786C84.1517 26.9185 60.9395 49.6476 60.9395 77.6853V753.957C60.9395 781.995 84.1517 804.724 112.786 804.724H393.872C422.506 804.724 445.718 781.995 445.718 753.957V77.6853C445.718 49.6476 422.506 26.9185 393.872 26.9185Z" fill="#E6E6EA"/>
<path d="M393.932 27.0991H112.732C84.2335 27.0991 61.1309 49.7209 61.1309 77.6263V754.009C61.1309 781.915 84.2335 804.536 112.732 804.536H393.932C422.431 804.536 445.534 781.915 445.534 754.009V77.6263C445.534 49.7209 422.431 27.0991 393.932 27.0991Z" fill="#E6E6EB"/>
<path d="M393.986 27.2803H112.667C84.3068 27.2803 61.3164 49.7921 61.3164 77.5618V754.074C61.3164 781.843 84.3068 804.355 112.667 804.355H393.986C422.346 804.355 445.337 781.843 445.337 754.074V77.5618C445.337 49.7921 422.346 27.2803 393.986 27.2803Z" fill="#E7E7EB"/>
<path d="M394.047 27.4619H112.613C84.3886 27.4619 61.5078 49.8664 61.5078 77.5037V754.127C61.5078 781.764 84.3886 804.168 112.613 804.168H394.047C422.271 804.168 445.152 781.764 445.152 754.127V77.5037C445.152 49.8664 422.271 27.4619 394.047 27.4619Z" fill="#E8E8EC"/>
<path d="M394.107 27.6494H112.554C84.4677 27.6494 61.6992 49.9439 61.6992 77.4456V754.197C61.6992 781.699 84.4677 803.993 112.554 803.993H394.107C422.193 803.993 444.961 781.699 444.961 754.197V77.4456C444.961 49.9439 422.193 27.6494 394.107 27.6494Z" fill="#E8E8EC"/>
<path d="M394.159 27.8308H112.493C84.5417 27.8308 61.8828 50.018 61.8828 77.3873V754.25C61.8828 781.619 84.5417 803.806 112.493 803.806H394.159C422.11 803.806 444.769 781.619 444.769 754.25V77.3873C444.769 50.018 422.11 27.8308 394.159 27.8308Z" fill="#E9E9ED"/>
<path d="M394.219 28.0115H112.439C84.6234 28.0115 62.0742 50.0913 62.0742 77.3282V754.308C62.0742 781.545 84.6234 803.625 112.439 803.625H394.219C422.035 803.625 444.584 781.545 444.584 754.308V77.3282C444.584 50.0913 422.035 28.0115 394.219 28.0115Z" fill="#EAEAED"/>
<path d="M394.279 28.1929H112.38C84.7026 28.1929 62.2656 50.1628 62.2656 77.264V754.366C62.2656 781.468 84.7026 803.437 112.38 803.437H394.279C421.956 803.437 444.393 781.468 444.393 754.366V77.264C444.393 50.1628 421.956 28.1929 394.279 28.1929Z" fill="#EAEAEE"/>
<path d="M394.331 28.3799H112.319C84.7765 28.3799 62.4492 50.2425 62.4492 77.2113V754.431C62.4492 781.4 84.7765 803.262 112.319 803.262H394.331C421.873 803.262 444.201 781.4 444.201 754.431V77.2113C444.201 50.2425 421.873 28.3799 394.331 28.3799Z" fill="#EBEBEF"/>
<path d="M394.391 28.5615H112.265C84.8583 28.5615 62.6406 50.3168 62.6406 77.1532V754.484C62.6406 781.32 84.8583 803.075 112.265 803.075H394.391C421.798 803.075 444.016 781.32 444.016 754.484V77.1532C444.016 50.3168 421.798 28.5615 394.391 28.5615Z" fill="#ECECEF"/>
<path d="M112.206 28.7422H394.451C421.7 28.7422 443.825 50.4067 443.825 77.0883V754.542C443.825 781.223 421.7 802.888 394.451 802.888H112.206C84.9571 802.888 62.832 781.223 62.832 754.542V77.0883C62.832 50.4067 84.9571 28.7422 112.206 28.7422Z" fill="#EDEDF0"/>
<path d="M394.505 28.9236H112.147C85.0134 28.9236 63.0176 50.4615 63.0176 77.0299V754.6C63.0176 781.169 85.0134 802.706 112.147 802.706H394.505C421.638 802.706 443.634 781.169 443.634 754.6V77.0299C443.634 50.4615 421.638 28.9236 394.505 28.9236Z" fill="#EDEDF0"/>
<path d="M394.565 29.1106H112.093C85.0952 29.1106 63.209 50.5412 63.209 76.9772V754.659C63.209 781.094 85.0952 802.525 112.093 802.525H394.565C421.563 802.525 443.449 781.094 443.449 754.659V76.9772C443.449 50.5412 421.563 29.1106 394.565 29.1106Z" fill="#EEEEF1"/>
<path d="M394.625 29.292H112.034C85.1743 29.292 63.4004 50.6126 63.4004 76.913V754.723C63.4004 781.023 85.1743 802.344 112.034 802.344H394.625C421.485 802.344 443.259 781.023 443.259 754.723V76.913C443.259 50.6126 421.485 29.292 394.625 29.292Z" fill="#EFEFF2"/>
<path d="M394.679 29.4731H111.974C85.2502 29.4731 63.5859 50.6865 63.5859 76.8544V754.775C63.5859 780.943 85.2502 802.157 111.974 802.157H394.679C421.404 802.157 443.068 780.943 443.068 754.775V76.8544C443.068 50.6865 421.404 29.4731 394.679 29.4731Z" fill="#EFEFF2"/>
<path d="M394.74 29.6604H111.915C85.3293 29.6604 63.7773 50.7638 63.7773 76.7961V754.846C63.7773 780.878 85.3293 801.981 111.915 801.981H394.74C421.325 801.981 442.877 780.878 442.877 754.846V76.7961C442.877 50.7638 421.325 29.6604 394.74 29.6604Z" fill="#F0F0F3"/>
<path d="M394.8 29.8418H111.862C85.4111 29.8418 63.9688 50.8378 63.9688 76.7377V754.898C63.9688 780.798 85.4111 801.794 111.862 801.794H394.8C421.25 801.794 442.692 780.798 442.692 754.898V76.7377C442.692 50.8378 421.25 29.8418 394.8 29.8418Z" fill="#F1F1F3"/>
<path d="M394.86 30.0232H111.808C85.4929 30.0232 64.1602 50.9119 64.1602 76.6794V754.957C64.1602 780.725 85.4929 801.613 111.808 801.613H394.86C421.175 801.613 442.508 780.725 442.508 754.957V76.6794C442.508 50.9119 421.175 30.0232 394.86 30.0232Z" fill="#F2F2F4"/>
<path d="M394.912 30.2046H111.741C85.5642 30.2046 64.3438 50.9833 64.3438 76.6152V755.016C64.3438 780.647 85.5642 801.426 111.741 801.426H394.912C421.089 801.426 442.309 780.647 442.309 755.016V76.6152C442.309 50.9833 421.089 30.2046 394.912 30.2046Z" fill="#F2F2F4"/>
<path d="M394.972 30.3911H111.688C85.646 30.3911 64.5352 51.0625 64.5352 76.562V755.079C64.5352 780.579 85.646 801.25 111.688 801.25H394.972C421.013 801.25 442.124 780.579 442.124 755.079V76.562C442.124 51.0625 421.013 30.3911 394.972 30.3911Z" fill="#F3F3F5"/>
<path d="M395.032 30.5723H111.634C85.7278 30.5723 64.7266 51.1363 64.7266 76.5034V755.132C64.7266 780.499 85.7278 801.063 111.634 801.063H395.032C420.938 801.063 441.939 780.499 441.939 755.132V76.5034C441.939 51.1363 420.938 30.5723 395.032 30.5723Z" fill="#F4F4F6"/>
<path d="M395.084 30.7544H111.567C85.7991 30.7544 64.9102 51.2085 64.9102 76.4399V755.197C64.9102 780.428 85.7991 800.883 111.567 800.883H395.084C420.852 800.883 441.741 780.428 441.741 755.197V76.4399C441.741 51.2085 420.852 30.7544 395.084 30.7544Z" fill="#F4F4F6"/>
<path d="M395.144 30.9355H111.513C85.8809 30.9355 65.1016 51.2823 65.1016 76.3813V755.25C65.1016 780.349 85.8809 800.695 111.513 800.695H395.144C420.777 800.695 441.556 780.349 441.556 755.25V76.3813C441.556 51.2823 420.777 30.9355 395.144 30.9355Z" fill="#F5F5F7"/>
<path d="M395.198 31.1223H111.46C85.9627 31.1223 65.293 51.3617 65.293 76.3284V755.314C65.293 780.28 85.9627 800.52 111.46 800.52H395.198C420.695 800.52 441.365 780.28 441.365 755.314V76.3284C441.365 51.3617 420.695 31.1223 395.198 31.1223Z" fill="#F6F6F7"/>
<path d="M111.393 31.3037H395.256C420.6 31.3037 441.173 51.4479 441.173 76.2642V755.372C441.173 780.188 420.6 800.333 395.256 800.333H111.393C86.049 800.333 65.4766 780.188 65.4766 755.372V76.2642C65.4766 51.4479 86.055 31.3037 111.393 31.3037Z" fill="#F7F7F8"/>
<path d="M395.318 31.4849H111.341C86.1177 31.4849 65.6699 51.507 65.6699 76.2056V755.425C65.6699 780.123 86.1177 800.145 111.341 800.145H395.318C420.542 800.145 440.99 780.123 440.99 755.425V76.2056C440.99 51.507 420.542 31.4849 395.318 31.4849Z" fill="#F7F7F9"/>
<path d="M395.378 31.6721H111.282C86.1968 31.6721 65.8613 51.5843 65.8613 76.1472V755.495C65.8613 780.058 86.1968 799.97 111.282 799.97H395.378C420.463 799.97 440.799 780.058 440.799 755.495V76.1472C440.799 51.5843 420.463 31.6721 395.378 31.6721Z" fill="#F8F8F9"/>
<path d="M395.433 31.8535H111.223C86.2727 31.8535 66.0469 51.6584 66.0469 76.0889V755.548C66.0469 779.978 86.2727 799.783 111.223 799.783H395.433C420.382 799.783 440.608 779.978 440.608 755.548V76.0889C440.608 51.6584 420.382 31.8535 395.433 31.8535Z" fill="#F9F9FA"/>
<path d="M395.493 32.0347H111.169C86.3545 32.0347 66.2383 51.7322 66.2383 76.0303V755.606C66.2383 779.904 86.3545 799.602 111.169 799.602H395.493C420.307 799.602 440.423 779.904 440.423 755.606V76.0303C440.423 51.7322 420.307 32.0347 395.493 32.0347Z" fill="#F9F9FA"/>
<path d="M395.553 32.2153H111.11C86.4336 32.2153 66.4297 51.8029 66.4297 75.9654V755.664C66.4297 779.827 86.4336 799.414 111.11 799.414H395.553C420.229 799.414 440.233 779.827 440.233 755.664V75.9654C440.233 51.8029 420.229 32.2153 395.553 32.2153Z" fill="#FAFAFB"/>
<path d="M395.605 32.4026H111.049C86.5076 32.4026 66.6133 51.8828 66.6133 75.9129V755.728C66.6133 779.758 86.5076 799.239 111.049 799.239H395.605C420.146 799.239 440.04 779.758 440.04 755.728V75.9129C440.04 51.8828 420.146 32.4026 395.605 32.4026Z" fill="#FBFBFB"/>
<path d="M395.657 32.584H110.993C86.5875 32.584 66.8027 51.9569 66.8027 75.8545V755.781C66.8027 779.679 86.5875 799.052 110.993 799.052H395.657C420.063 799.052 439.847 779.679 439.847 755.781V75.8545C439.847 51.9569 420.063 32.584 395.657 32.584Z" fill="#FBFBFC"/>
<path d="M395.723 32.7654H110.934C86.6666 32.7654 66.9941 52.0283 66.9941 75.7903V755.846C66.9941 779.608 86.6666 798.871 110.934 798.871H395.723C419.99 798.871 439.663 779.608 439.663 755.846V75.7903C439.663 52.0283 419.99 32.7654 395.723 32.7654Z" fill="#FCFCFD"/>
<path d="M395.777 32.9468H110.874C86.7425 32.9468 67.1797 52.1024 67.1797 75.732V755.898C67.1797 779.528 86.7425 798.684 110.874 798.684H395.777C419.909 798.684 439.472 779.528 439.472 755.898V75.732C439.472 52.1024 419.909 32.9468 395.777 32.9468Z" fill="#FDFDFD"/>
<path d="M395.831 33.1333H110.821C86.8243 33.1333 67.3711 52.1816 67.3711 75.6788V755.962C67.3711 779.459 86.8243 798.508 110.821 798.508H395.831C419.828 798.508 439.281 779.459 439.281 755.962V75.6788C439.281 52.1816 419.828 33.1333 395.831 33.1333Z" fill="#FEFEFE"/>
<path d="M110.762 33.3145H395.897C419.742 33.3145 439.096 52.2716 439.096 75.6143V756.02C439.096 779.369 419.736 798.32 395.897 798.32H110.762C86.9167 798.32 67.5625 779.363 67.5625 756.02V75.6143C67.5625 52.2658 86.9227 33.3145 110.762 33.3145Z" fill="#FEFEFE"/>
<path d="M395.957 33.4961H110.708C86.9852 33.4961 67.7539 52.3271 67.7539 75.5562V756.079C67.7539 779.308 86.9852 798.139 110.708 798.139H395.957C419.68 798.139 438.911 779.308 438.911 756.079V75.5562C438.911 52.3271 419.68 33.4961 395.957 33.4961Z" fill="white"/>
<path d="M278.62 805.636H228.828C228.828 804.642 229.652 803.835 230.667 803.835H276.781C277.796 803.835 278.62 804.642 278.62 805.636Z" fill="#E2E2E7"/>
<path opacity="0.88" d="M277.826 805.636H228.828C228.828 804.975 229.378 804.438 230.052 804.438H276.602C277.276 804.438 277.826 804.975 277.826 805.636Z" fill="#A7A7AA"/>
<path d="M438.291 754.36L438.291 77.2751C438.291 53.4291 418.549 34.0981 394.196 34.0981L112.458 34.0981C88.1056 34.0981 68.3636 53.4291 68.3636 77.2751L68.3636 754.36C68.3636 778.206 88.1056 797.537 112.458 797.537H394.196C418.549 797.537 438.291 778.206 438.291 754.36Z" fill="white"/>
<path d="M426.658 748.963L426.658 79.0766C426.658 59.5354 410.48 43.6941 390.524 43.6941L116.137 43.6941C96.1805 43.6941 80.0025 59.5354 80.0025 79.0766L80.0025 748.963C80.0025 768.505 96.1805 784.346 116.137 784.346H390.524C410.48 784.346 426.658 768.505 426.658 748.963Z" fill="#FAFAFA"/>
<path d="M207.396 764.903H299.265" stroke="white" stroke-width="6.79" stroke-miterlimit="10" stroke-linecap="round"/>
<path d="M319.805 34.8291H186.888C180.256 34.8291 174.879 40.0938 174.879 46.5882V57.2772C174.879 63.7715 180.256 69.0362 186.888 69.0362H319.805C326.438 69.0362 331.815 63.7715 331.815 57.2772V46.5882C331.815 40.0938 326.438 34.8291 319.805 34.8291Z" fill="white"/>
<path d="M272.164 57.8388H234.191C232.835 57.8388 231.742 56.7629 231.742 55.4414C231.742 54.114 232.841 53.0439 234.191 53.0439H272.164C273.52 53.0439 274.613 54.1199 274.613 55.4414C274.613 56.7687 273.514 57.8388 272.164 57.8388Z" fill="#9B9B9E"/>
<path d="M272.469 58.4416H234.495C233.14 58.4416 232.047 57.3657 232.047 56.0442C232.047 54.7168 233.146 53.6467 234.495 53.6467H272.469C273.825 53.6467 274.918 54.7226 274.918 56.0442C274.918 57.3715 273.819 58.4416 272.469 58.4416Z" fill="#EAEAEA"/>
<path d="M448.473 203.251H445.457C445.117 203.251 444.842 203.521 444.842 203.853V296.207C444.842 296.539 445.117 296.809 445.457 296.809H448.473C448.812 296.809 449.088 296.539 449.088 296.207V203.853C449.088 203.521 448.812 203.251 448.473 203.251Z" fill="#DBDCDF"/>
<path d="M448.479 296.803H446.072C445.732 296.803 445.457 296.534 445.457 296.201V203.847C445.457 203.514 445.732 203.245 446.072 203.245H448.479C449.153 203.245 449.703 203.783 449.703 204.444V295.599C449.703 296.259 449.153 296.797 448.479 296.797V296.803Z" fill="#F4F5F9"/>
<path d="M61.3296 125.855H58.1467C57.8532 125.855 57.6152 126.088 57.6152 126.375V151.32C57.6152 151.608 57.8532 151.841 58.1467 151.841H61.3296C61.6231 151.841 61.8611 151.608 61.8611 151.32V126.375C61.8611 126.088 61.6231 125.855 61.3296 125.855Z" fill="#D7D9DA"/>
<path d="M61.3296 187.779H58.1467C57.8532 187.779 57.6152 188.012 57.6152 188.299V249.626C57.6152 249.914 57.8532 250.147 58.1467 250.147H61.3296C61.6231 250.147 61.8611 249.914 61.8611 249.626V188.299C61.8611 188.012 61.6231 187.779 61.3296 187.779Z" fill="#D7D9DA"/>
<path d="M61.3296 262.362H58.1467C57.8532 262.362 57.6152 262.595 57.6152 262.882V324.209C57.6152 324.497 57.8532 324.73 58.1467 324.73H61.3296C61.6231 324.73 61.8611 324.497 61.8611 324.209V262.882C61.8611 262.595 61.6231 262.362 61.3296 262.362Z" fill="#D7D9DA"/>
<path d="M58.2242 125.855H60.6308C60.9712 125.855 61.2459 126.124 61.2459 126.458V151.245C61.2459 151.578 60.9712 151.847 60.6308 151.847H58.2242C57.5494 151.847 57 151.309 57 150.648V127.06C57 126.399 57.5494 125.861 58.2242 125.861V125.855Z" fill="#F4F5F9"/>
<path d="M58.2242 187.779H60.7144C61.007 187.779 61.2459 188.012 61.2459 188.299V249.632C61.2459 249.919 61.007 250.152 60.7144 250.152H58.2242C57.5494 250.152 57 249.615 57 248.954V188.983C57 188.322 57.5494 187.784 58.2242 187.784V187.779Z" fill="#F4F5F9"/>
<path d="M58.2242 262.362H60.7144C61.007 262.362 61.2459 262.596 61.2459 262.882V324.215C61.2459 324.502 61.007 324.736 60.7144 324.736H58.2242C57.5494 324.736 57 324.198 57 323.537V263.566C57 262.906 57.5494 262.368 58.2242 262.368V262.362Z" fill="#F4F5F9"/>
</g>
<defs>
<filter id="filter0_d_2046_400" x="0" y="0" width="472.703" height="859.636" filterUnits="userSpaceOnUse" color-interpolation-filters="sRGB">
<feFlood flood-opacity="0" result="BackgroundImageFix"/>
<feColorMatrix in="SourceAlpha" type="matrix" values="0 0 0 0 0 0 0 0 0 0 0 0 0 0 0 0 0 0 127 0" result="hardAlpha"/>
<feOffset dx="-17" dy="14"/>
<feGaussianBlur stdDeviation="20"/>
<feComposite in2="hardAlpha" operator="out"/>
<feColorMatrix type="matrix" values="0 0 0 0 0.454167 0 0 0 0 0.454167 0 0 0 0 0.454167 0 0 0 0.19 0"/>
<feBlend mode="normal" in2="BackgroundImageFix" result="effect1_dropShadow_2046_400"/>
<feBlend mode="normal" in="SourceGraphic" in2="effect1_dropShadow_2046_400" result="shape"/>
</filter>
</defs>
</svg>
