<svg width="209" height="175" viewBox="0 0 209 175" fill="none" xmlns="http://www.w3.org/2000/svg">
<g clip-path="url(#clip0_2046_573)">
<path d="M63.6947 25.923V67.9209L83.9802 87.487L63.6947 107.053V149.051C63.6947 163.354 52.1068 174.974 37.7846 174.974H0V149.051H32.8109C35.5711 149.051 37.8106 146.81 37.8106 144.049V104.76L52.0287 91.0302L55.7264 87.4609L52.0287 83.8916L37.8106 70.1615V30.8732C37.8106 28.1115 35.5711 25.8709 32.8109 25.8709H0V0H37.7846C52.0807 0 63.6947 11.5937 63.6947 25.923Z" fill="#00A968"/>
<path d="M27.4207 71.0209C32.7132 71.0209 37.0036 66.7284 37.0036 61.4333C37.0036 56.1382 32.7132 51.8457 27.4207 51.8457C22.1283 51.8457 17.8379 56.1382 17.8379 61.4333C17.8379 66.7284 22.1283 71.0209 27.4207 71.0209Z" fill="#00A968"/>
<path d="M145.305 149.077V107.079L125.02 87.513L145.305 67.947V25.923C145.305 11.6198 156.893 0 171.215 0H209V25.923H176.189C173.429 25.923 171.189 28.1636 171.189 30.9253V70.2136L156.971 83.9437L153.273 87.513L156.971 91.0823L171.189 104.812V144.101C171.189 146.862 173.429 149.103 176.189 149.103H209V175.026H171.215C156.919 175.026 145.305 163.432 145.305 149.103V149.077Z" fill="#00A968"/>
<path d="M181.579 71.0209C186.871 71.0209 191.162 66.7284 191.162 61.4333C191.162 56.1382 186.871 51.8457 181.579 51.8457C176.286 51.8457 171.996 56.1382 171.996 61.4333C171.996 66.7284 176.286 71.0209 181.579 71.0209Z" fill="#00A968"/>
</g>
<defs>
<clipPath id="clip0_2046_573">
<rect width="209" height="175" fill="white"/>
</clipPath>
</defs>
</svg>
