<svg width="286" height="137" viewBox="0 0 286 137" fill="none" xmlns="http://www.w3.org/2000/svg">
<g clip-path="url(#clip0_2046_567)">
<path d="M243.626 33.0919H174.968L143 0L111.006 33.0919H42.3476C18.9724 33.0919 0 51.994 0 75.342V137H42.3476V83.4885C42.3476 78.9893 46.0034 75.342 50.513 75.342H114.742L137.183 52.1271L143 46.1104L148.817 52.1271L171.258 75.342H235.487C239.997 75.342 243.652 78.9893 243.652 83.4885V137H286V75.342C286 51.994 267.028 33.0919 243.652 33.0919H243.626Z" fill="#00A968"/>
<path d="M142.999 108.3C151.664 108.3 158.689 101.292 158.689 92.6463C158.689 84.0008 151.664 76.9922 142.999 76.9922C134.333 76.9922 127.309 84.0008 127.309 92.6463C127.309 101.292 134.333 108.3 142.999 108.3Z" fill="#00A968"/>
</g>
<defs>
<clipPath id="clip0_2046_567">
<rect width="286" height="137" fill="white"/>
</clipPath>
</defs>
</svg>
