<svg width="216" height="172" viewBox="0 0 216 172" fill="none" xmlns="http://www.w3.org/2000/svg">
<g clip-path="url(#clip0_2046_570)">
<path d="M184.013 93.4205H132.171L108.013 68.4014L83.8545 93.4205H31.9866C14.3084 93.4205 0 107.743 0 125.381V172.026H31.9866V131.545C31.9866 128.152 34.7342 125.381 38.1558 125.381H86.654L103.606 107.821L107.987 103.262L112.368 107.821L129.32 125.381H177.818C181.214 125.381 183.988 128.126 183.988 131.545V172.026H215.974V125.381C215.974 107.717 201.64 93.4205 183.988 93.4205H184.013Z" fill="#00A968"/>
<path d="M96.7382 72.8559C95.7014 66.7177 92.3575 53.6901 105.681 46.3605C110.813 43.5374 114.079 42.2424 116.049 40.2223C117.708 38.5129 119.082 36.5445 120.067 34.3689C121.882 30.3804 123.67 24.5788 122.115 20.3313C121.674 19.1399 120.119 13.6232 111.824 12.0693C105.007 10.7743 101.171 12.5873 98.1379 15.2031C97.0752 16.1355 95.1052 19.5025 94.7682 20.9529C92.5649 30.4581 87.2252 29.2408 81.6522 28.5415C81.6262 28.0494 81.0041 14.6851 89.4803 7.20012C95.3385 2.02018 103.426 -1.42449 114.002 0.569792C127.636 3.13386 132.406 12.6391 133.831 18.6478C136.657 30.743 128.284 45.2468 125.303 47.5001C123.126 49.7274 121.13 51.0224 120.767 51.3332C117.838 53.6901 112.628 54.7002 108.325 57.7823C105.629 59.7247 105.733 61.6154 106.018 63.6615L96.7641 72.8818L96.7382 72.8559Z" fill="#00A968"/>
</g>
<defs>
<clipPath id="clip0_2046_570">
<rect width="216" height="172" fill="white"/>
</clipPath>
</defs>
</svg>
