<svg width="188" height="121" viewBox="0 0 188 121" fill="none" xmlns="http://www.w3.org/2000/svg">
<path d="M99.5211 94.023C99.4202 90.9141 101.935 88.3321 105.028 88.3321H105.04V88.3301H104.58C101.576 88.3273 99.1443 85.8903 99.1462 82.8872C99.1481 79.8841 101.585 77.4674 104.588 77.4693C107.092 77.4693 124.553 77.4693 127.213 77.4693C127.844 77.4693 128.291 76.8531 128.095 76.2542L126.112 70.2009C124.424 65.0493 124.724 61.5415 124.724 55.5074C124.724 51.9583 127.601 49.082 131.15 49.082C134.374 49.082 137.099 51.4699 137.521 54.6662C137.988 58.2029 138.303 64.4917 144.149 70.1211L148.276 74.0932C150.574 76.3071 153.641 77.5433 156.831 77.5433H162.252V113.213C160.777 113.213 157.815 113.213 157.813 113.213C149.935 113.208 150.655 121.009 140.857 121H107.512C104.513 121 102.082 118.568 102.082 115.569C102.082 112.568 104.513 110.137 107.512 110.137H106.556C103.605 110.137 101.084 107.842 100.986 104.891C100.883 101.808 103.353 99.2746 106.414 99.2746H105.093C102.139 99.2746 99.6163 96.9761 99.5211 94.023Z" fill="#FFCDBF"/>
<path d="M107.512 114.662H140.857C150.655 114.671 149.935 106.869 157.813 106.874C157.815 106.874 160.777 106.875 162.251 106.876V113.214C160.777 113.213 157.815 113.213 157.813 113.213C149.935 113.208 150.655 121.009 140.857 121H107.512C104.513 121 102.082 118.568 102.082 115.569C102.082 114.385 102.465 113.292 103.109 112.4C104.094 113.768 105.698 114.662 107.512 114.662Z" fill="#FFBEAB"/>
<path d="M163.794 74.3379H184.365C185.916 74.3379 187.175 75.5962 187.175 77.1478V114.306C187.175 115.859 185.917 117.117 184.365 117.117H163.794C162.242 117.117 160.984 115.859 160.984 114.306V77.1478C160.984 75.5962 162.242 74.3379 163.794 74.3379Z" fill="#54A0FF"/>
<path d="M179.569 114.307V77.1478C179.569 75.5962 178.311 74.3379 176.758 74.3379H184.365C185.916 74.3379 187.175 75.5962 187.175 77.1478V114.306C187.175 115.859 185.917 117.117 184.365 117.117H176.759C178.311 117.117 179.569 115.859 179.569 114.307Z" fill="#338DEF"/>
<path d="M116.214 96.7381C116.214 98.1387 115.079 99.274 113.679 99.274H105.093C102.199 99.274 99.7269 97.0678 99.5356 94.2031H113.678C115.079 94.2031 116.214 95.3384 116.214 96.7381Z" fill="#FFBEAB"/>
<path d="M116.214 85.7937C116.214 87.1944 115.079 88.3297 113.679 88.3297H104.581C101.702 88.3268 99.3549 86.0879 99.1645 83.2588H113.679C115.079 83.2588 116.214 84.3941 116.214 85.7937Z" fill="#FFBEAB"/>
<path d="M101.001 105.066H113.679C115.079 105.066 116.214 106.202 116.214 107.601C116.214 109.002 115.079 110.137 113.679 110.137H106.556C103.663 110.137 101.192 107.931 101.001 105.066Z" fill="#FFBEAB"/>
<path d="M85.5862 41.3857C84.533 41.2541 84.1121 39.9778 84.8729 39.2237L90.7549 33.4051C91.0568 33.1055 91.1944 32.6813 91.1228 32.2687L89.7299 24.2475C89.5494 23.2094 90.6492 22.3928 91.5915 22.8653L98.8663 26.519C99.2405 26.7069 99.6878 26.6981 100.061 26.495L107.332 22.5478C108.273 22.0368 109.374 22.8091 109.195 23.8559L107.81 31.9325C107.739 32.3473 107.878 32.7663 108.18 33.0542L114.067 38.6351C114.829 39.3578 114.41 40.6522 113.357 40.8258L105.225 42.1638C104.808 42.2328 104.446 42.5016 104.26 42.8808L100.627 50.2775C100.157 51.2352 98.7961 51.2623 98.3246 50.3241L94.685 43.0745C94.4976 42.7012 94.1358 42.4477 93.7181 42.3963L85.5862 41.3857Z" fill="#FECA57"/>
<path d="M100.127 37.2123C99.8245 36.9257 99.6858 36.5067 99.7568 36.0912L101.142 28.0139C101.28 27.2138 100.665 26.5754 99.9479 26.5491C99.986 26.5328 100.024 26.5156 100.061 26.4951L107.332 22.5486C108.273 22.0377 109.374 22.8105 109.195 23.8559L107.81 31.9326C107.739 32.3481 107.877 32.7677 108.18 33.0543L114.067 38.6365C114.829 39.3587 114.41 40.6531 113.357 40.8266L105.331 42.1473L100.127 37.2123Z" fill="#F4B537"/>
<path d="M99.2784 26.707L92.0075 30.6534C91.6458 30.8501 91.2159 30.8629 90.8493 30.6932L89.7292 24.2488C89.5494 23.2101 90.6492 22.3934 91.5908 22.8665L98.8663 26.5197C99.034 26.6036 99.2166 26.6464 99.4 26.6515C99.3597 26.6682 99.3187 26.6855 99.2784 26.707Z" fill="#F4B537"/>
<path d="M17.8546 91.678C16.8015 91.5464 16.3814 90.2695 17.1421 89.5155L23.0233 83.6974C23.3253 83.3978 23.4637 82.973 23.392 82.5604L21.9984 74.5398C21.8179 73.5017 22.9185 72.6845 23.86 73.1575L31.1355 76.8107C31.5097 76.9986 31.9562 76.9904 32.3298 76.7872L39.6002 72.8401C40.5422 72.3286 41.6429 73.1014 41.4642 74.1476L40.0797 82.2242C40.0081 82.639 40.1461 83.0586 40.4493 83.3459L46.3356 88.9274C47.0981 89.6495 46.678 90.9445 45.6259 91.1175L37.4946 92.4556C37.0768 92.5251 36.7156 92.7933 36.5283 93.1731L32.8964 100.569C32.4258 101.527 31.0654 101.554 30.5939 100.616L26.9542 93.3662C26.7668 92.9929 26.405 92.7395 25.9873 92.688L17.8546 91.678Z" fill="#FECA57"/>
<path d="M32.3955 87.5037C32.0929 87.2171 31.955 86.7975 32.026 86.382L33.4105 78.3054C33.548 77.5052 32.9339 76.8669 32.217 76.84C32.2552 76.8236 32.2928 76.8065 32.3294 76.7865L39.6003 72.8401C40.5416 72.3291 41.643 73.1014 41.4638 74.1468L40.0786 82.224C40.0075 82.6396 40.1463 83.0586 40.4488 83.3452L46.3358 88.9274C47.0975 89.6501 46.6781 90.9445 45.6252 91.1181L37.5996 92.4388L32.3955 87.5037Z" fill="#F4B537"/>
<path d="M31.5477 76.998L24.2767 80.9445C23.9143 81.1417 23.4844 81.1544 23.1185 80.9843L21.9984 74.5398C21.8179 73.5017 22.9185 72.6845 23.86 73.1575L31.1348 76.8113C31.3024 76.8952 31.4851 76.938 31.6692 76.9425C31.6282 76.9598 31.588 76.9765 31.5477 76.998Z" fill="#F4B537"/>
<path d="M38.4607 63.8893C36.7577 63.6775 36.0776 61.6119 37.3081 60.394L46.8175 50.9852C47.3061 50.5015 47.5299 49.8145 47.4134 49.1479L45.1603 36.1788C44.869 34.4997 46.648 33.1787 48.1704 33.9438L59.9336 39.8515C60.5388 40.1553 61.2604 40.1403 61.8655 39.8119L73.6217 33.4307C75.1442 32.6044 76.9241 33.8535 76.6351 35.5444L74.3955 48.6034C74.2803 49.2756 74.5037 49.9538 74.9931 50.4178L84.5121 59.4419C85.7439 60.6106 85.065 62.7036 83.3634 62.984L70.2165 65.1476C69.5403 65.2593 68.9568 65.6925 68.6543 66.3075L62.7809 78.2668C62.0203 79.8145 59.8204 79.8591 59.0587 78.3414L53.1726 66.6198C52.87 66.0172 52.2854 65.6072 51.6094 65.5224L38.4607 63.8893Z" fill="#FECA57"/>
<path d="M53.8122 43.9703C53.2079 44.298 52.4856 44.3123 51.8811 44.0092L46.0084 41.0601L45.1603 36.1785C44.869 34.4994 46.6481 33.1785 48.1704 33.9435L59.9336 39.8512C60.2722 40.0201 60.647 40.0879 61.0174 40.0595L53.8122 43.9703Z" fill="#F4B537"/>
<path d="M76.4585 63.5992L66.9397 54.5738C66.4503 54.1098 66.2269 53.4316 66.3418 52.7608L68.5809 39.7009C68.817 38.3259 67.6831 37.2437 66.4333 37.3312L73.6214 33.4295C75.1439 32.6032 76.9238 33.8522 76.6347 35.5431L74.3951 48.6022C74.28 49.2744 74.5034 49.9526 74.9928 50.4166L84.5118 59.4407C85.7436 60.6094 85.0654 62.7018 83.3631 62.9828L76.8214 64.0589C76.7274 63.8953 76.6074 63.7401 76.4585 63.5992Z" fill="#F4B537"/>
</svg>
