<svg width="63" height="70" viewBox="0 0 63 70" fill="none" xmlns="http://www.w3.org/2000/svg">
<g clip-path="url(#clip0_1486_958)">
<path d="M0.00927352 35.0034C0.00927352 29.0875 -0.0109953 23.1738 0.0137777 17.2579C0.0498112 9.03003 5.40528 2.26482 13.3417 0.449381C14.5893 0.164033 15.8978 0.0292236 17.1792 0.0224831C24.4557 -0.0179598 31.7322 0.011249 39.0065 1.48139e-05C41.9365 -0.00447885 44.425 1.01334 46.4947 3.08491C50.9381 7.53139 55.3837 11.9779 59.8451 16.4041C61.9283 18.469 62.9777 20.9495 62.98 23.8659C62.9868 33.5385 63.0273 43.2088 62.9687 52.8814C62.9169 61.4059 57.0908 68.243 48.6905 69.7551C47.7018 69.9326 46.6794 69.9843 45.6727 69.9865C36.2342 70.0023 26.7934 70.0045 17.3549 69.9933C8.60776 69.9843 1.62853 64.0594 0.211962 55.4293C0.0498112 54.4385 0.020534 53.4184 0.0182819 52.4118C0.000265156 46.6083 0.00927352 40.8047 0.00927352 35.0034ZM39.5898 5.38791H38.5718C31.5476 5.38791 24.521 5.38791 17.4968 5.38791C10.504 5.38791 5.41204 10.4455 5.40528 17.4197C5.39402 29.1414 5.39853 40.8609 5.41204 52.5826C5.41204 53.4184 5.46834 54.27 5.63049 55.0901C6.75203 60.7566 11.4476 64.6031 17.2445 64.6099C26.629 64.6211 36.0157 64.6144 45.4002 64.6121C52.5145 64.6121 57.5795 59.586 57.5862 52.5039C57.5952 43.11 57.5862 33.716 57.5862 24.3242C57.5862 24.0254 57.5862 23.7265 57.5862 23.3491C55.199 23.3491 52.9267 23.3693 50.6566 23.3401C49.6206 23.3266 48.5621 23.3266 47.5554 23.1222C42.835 22.1628 39.6348 18.233 39.5943 13.4091C39.5718 10.7758 39.5898 8.14253 39.5898 5.39016V5.38791ZM44.9925 9.39851C44.9925 10.8634 44.9498 12.2924 45.0016 13.7169C45.0781 15.8042 46.6546 17.6017 48.7423 17.8466C50.1543 18.0129 51.5979 17.9387 53.0258 17.9612C53.1969 17.9634 53.3681 17.9073 53.5055 17.8825C50.6633 15.0515 47.855 12.252 44.9903 9.39851H44.9925Z" fill="#252525"/>
<path d="M34.1934 34.5675C34.1934 38.2658 34.2047 41.9641 34.1889 45.6624C34.1822 47.2846 32.9841 48.4799 31.4504 48.4552C29.955 48.4305 28.8087 47.2419 28.8042 45.6534C28.7907 42.1214 28.7997 38.5916 28.7997 35.0596C28.7997 34.8933 28.7997 34.7248 28.7997 34.3294C27.8943 35.2281 27.1106 35.9943 26.3381 36.7717C25.6152 37.5019 24.7594 37.8434 23.7415 37.6232C22.7641 37.412 22.0682 36.8121 21.7596 35.8639C21.4218 34.8237 21.6403 33.8643 22.4217 33.0734C23.8248 31.6579 25.2391 30.2559 26.6489 28.8493C27.6016 27.8989 28.5407 26.9328 29.5136 26.0004C30.7432 24.8208 32.2701 24.8095 33.4885 26.0071C35.8487 28.3281 38.1931 30.667 40.5173 33.024C41.6726 34.1946 41.6636 35.8684 40.5601 36.9312C39.4768 37.976 37.8688 37.9445 36.7113 36.8166C35.914 36.0415 35.1596 35.2259 34.3849 34.4282L34.1934 34.5675Z" fill="#252525"/>
</g>
<defs>
<clipPath id="clip0_1486_958">
<rect width="63" height="70" fill="white"/>
</clipPath>
</defs>
</svg>
